<svg version="1.2" xmlns="http://www.w3.org/2000/svg" viewBox="0 0 1122 1122" width="1122" height="1122">
	<defs>
		<!-- Background gradient -->
		<linearGradient id="bg" x1="0" y1="0" x2="1" y2="1">
			<stop offset="0" stop-color="transparent"/>
			<stop offset="1" stop-color="transparent"/>
		</linearGradient>

		<!-- Existing gradients -->
		<linearGradient id="g1" x2="1" gradientUnits="userSpaceOnUse" gradientTransform="matrix(554.768,0,0,545.481,338.382,368.217)">
			<stop offset="0" stop-color="#4ECDE6"/>
			<stop offset=".995" stop-color="#7366F0"/>
		</linearGradient>
		<linearGradient id="g2" x2="1" gradientUnits="userSpaceOnUse" gradientTransform="matrix(343.626,0,0,336.764,346.817,374.672)">
			<stop offset="0" stop-color="#74E3C5"/>
			<stop offset="1" stop-color="#4A9FFF"/>
		</linearGradient>
	</defs>

	<style>
		.bg   { fill: url(#bg) }
		.s0   { fill: #2E2E32 }
		.s1   { fill: url(#g1) }
		.s2   { fill: url(#g2) }
	</style>

	<!-- Background behind everything -->
	<rect x="0" y="0" width="1122" height="1122" rx="220" ry="220" class="bg"/>

	<!-- Your original icon, unchanged -->
	<g transform="translate(0,0) scale(1)">
			<path id="&lt;Compound Path&gt;" fill-rule="evenodd" class="s0" d="m575.74 256.7q59.87 0 108.77 23.06 48.9 23.06 81.45 62.64 32.55 39.59 46.23 92.62 13.67 53.03 3.11 112.99-10.58 59.95-42.96 112.98-32.38 53.04-78.89 92.62-46.51 39.59-103.54 62.64-57.03 23.06-116.9 23.06-59.88 0-108.77-23.06-48.91-23.05-81.45-62.64-32.55-39.58-46.23-92.62-13.67-53.03-3.1-112.98 10.57-59.96 42.94-112.99 32.38-53.03 78.89-92.62 46.51-39.58 103.55-62.64 57.02-23.06 116.9-23.06zm-20.21 116.83q-36.14 0.01-70.46 13.81-34.34 13.81-62.28 37.2-27.96 23.38-47.4 55.21-19.45 31.84-25.8 67.87-6.36 36.05 1.86 67.88 8.22 31.83 27.86 55.6 19.63 23.78 49.1 37.58 29.45 13.8 65.59 13.8 36.12 0 70.45-13.8 34.32-13.8 61.97-37.58 27.63-23.77 47.08-55.6 19.45-31.83 25.81-67.88 6.35-36.03-1.87-67.87-8.23-31.83-27.54-55.21-19.33-23.39-48.79-37.2-29.46-13.8-65.58-13.81z"/>
			<path id="&lt;Path&gt;" class="s1" d="m885.43 509.41q-13.67-53.03-46.22-92.62-23.54-28.6-55.62-48.57 18.97 30.64 28.6 67.94 13.67 53.03 3.11 112.99-10.58 59.95-42.96 112.98-32.38 53.04-78.89 92.62-46.51 39.59-103.54 62.64-57.03 23.06-116.9 23.06-59.88 0-108.77-23.06-13.56-6.4-25.86-14.08 8 12.94 17.65 24.69 32.55 39.59 81.46 62.64 48.89 23.06 108.77 23.06 59.87 0 116.9-23.06 57.03-23.05 103.54-62.64 46.51-39.58 78.89-92.62 32.38-53.03 42.95-112.99 10.57-59.95-3.11-112.98z"/>
			<path id="&lt;Path&gt;" class="s2" d="m422.84 622.01q6.35-36.03 25.8-67.87 19.44-31.83 47.4-55.22 27.94-23.38 62.28-37.19 34.32-13.8 70.46-13.81 33.73 0.01 61.66 12.05-7.89-18.96-20.54-34.29-19.33-23.39-48.79-37.2-29.46-13.8-65.58-13.81-36.14 0.01-70.46 13.81-34.34 13.81-62.28 37.2-27.96 23.38-47.4 55.22-19.45 31.83-25.8 67.86-6.36 36.05 1.86 67.88 8.22 31.83 27.86 55.6 19.63 23.78 49.1 37.58 1.78 0.83 3.58 1.62-4.36-10.27-7.29-21.55-8.22-31.83-1.86-67.88z"/>
	</g>
</svg>
